<svg width="24" height="24" viewBox="0 0 24 24" xmlns="http://www.w3.org/2000/svg">
<path d="M18.75 6V15.75C18.75 15.9489 18.671 16.1397 18.5303 16.2803C18.3897 16.421 18.1989 16.5 18 16.5C17.8011 16.5 17.6103 16.421 17.4697 16.2803C17.329 16.1397 17.25 15.9489 17.25 15.75V7.81031L6.53063 18.5306C6.3899 18.6714 6.19903 18.7504 6.00001 18.7504C5.80098 18.7504 5.61011 18.6714 5.46938 18.5306C5.32865 18.3899 5.24959 18.199 5.24959 18C5.24959 17.801 5.32865 17.6101 5.46938 17.4694L16.1897 6.75H8.25001C8.05109 6.75 7.86033 6.67098 7.71968 6.53033C7.57902 6.38968 7.50001 6.19891 7.50001 6C7.50001 5.80109 7.57902 5.61032 7.71968 5.46967C7.86033 5.32902 8.05109 5.25 8.25001 5.25H18C18.1989 5.25 18.3897 5.32902 18.5303 5.46967C18.671 5.61032 18.75 5.80109 18.75 6Z"/>
</svg>
