<svg width="24" height="24" viewBox="0 0 24 24" xmlns="http://www.w3.org/2000/svg">
<path d="M20.9859 4.41763C20.9637 4.05194 20.8084 3.70702 20.5494 3.44796C20.2903 3.1889 19.9454 3.0336 19.5797 3.01138C18.4003 2.94107 15.3862 3.04888 12.885 5.54919L12.4397 6.00013H6.97124C6.7735 5.99902 6.57752 6.03723 6.39468 6.11256C6.21185 6.18788 6.04581 6.2988 5.90624 6.43888L2.69062 9.65638C2.49341 9.85345 2.35503 10.1016 2.29101 10.3729C2.22698 10.6443 2.23984 10.9281 2.32815 11.1925C2.41646 11.457 2.57672 11.6916 2.79094 11.87C3.00517 12.0484 3.26488 12.1636 3.54093 12.2026L7.14749 12.7061L11.2922 16.8508L11.7956 20.4592C11.8343 20.7353 11.9495 20.995 12.1281 21.209C12.3067 21.4231 12.5416 21.5829 12.8062 21.6704C12.9604 21.7219 13.1218 21.7482 13.2844 21.7483C13.4812 21.7486 13.6761 21.7101 13.8579 21.6347C14.0397 21.5594 14.2048 21.4489 14.3437 21.3095L17.5612 18.0939C17.7013 17.9543 17.8122 17.7883 17.8876 17.6054C17.9629 17.4226 18.0011 17.2266 18 17.0289V11.5604L18.4472 11.1133C20.9484 8.61201 21.0562 5.59794 20.9859 4.41763ZM6.97124 7.50013H10.9397L7.23374 11.2051L3.74999 10.7195L6.97124 7.50013ZM13.9472 6.61419C14.6679 5.88907 15.535 5.32608 16.4906 4.96281C17.4462 4.59954 18.4684 4.44436 19.4887 4.50763C19.5545 5.52855 19.4009 6.55171 19.0384 7.50835C18.6758 8.46499 18.1127 9.33294 17.3869 10.0539L12 15.4389L8.56124 12.0001L13.9472 6.61419ZM16.5 17.0289L13.2816 20.2501L12.795 16.7654L16.5 13.0604V17.0289ZM9.54749 17.9195C9.12562 18.8439 7.71468 21.0001 3.74999 21.0001C3.55108 21.0001 3.36031 20.9211 3.21966 20.7805C3.07901 20.6398 2.99999 20.449 2.99999 20.2501C2.99999 16.2854 5.15624 14.8745 6.08062 14.4517C6.17024 14.4108 6.26704 14.388 6.36549 14.3845C6.46394 14.3811 6.5621 14.397 6.65438 14.4315C6.74666 14.466 6.83124 14.5183 6.9033 14.5855C6.97537 14.6526 7.03349 14.7333 7.07437 14.8229C7.11524 14.9126 7.13806 15.0094 7.14152 15.1078C7.14499 15.2063 7.12903 15.3044 7.09455 15.3967C7.06008 15.489 7.00777 15.5736 6.94061 15.6456C6.87344 15.7177 6.79274 15.7758 6.70312 15.8167C6.1003 16.0914 4.76999 16.9754 4.53562 19.4645C7.02468 19.2301 7.91062 17.8998 8.18343 17.297C8.2243 17.2074 8.28243 17.1267 8.35449 17.0595C8.42655 16.9924 8.51114 16.94 8.60342 16.9056C8.69569 16.8711 8.79386 16.8551 8.89231 16.8586C8.99075 16.8621 9.08755 16.8849 9.17718 16.9258C9.26681 16.9666 9.34751 17.0248 9.41467 17.0968C9.48183 17.1689 9.53414 17.2535 9.56862 17.3457C9.60309 17.438 9.61905 17.5362 9.61559 17.6346C9.61212 17.7331 9.5893 17.8299 9.54843 17.9195H9.54749Z" />
</svg>
