<svg width="29" height="32" viewBox="0 0 29 32" fill="none" xmlns="http://www.w3.org/2000/svg">
<mask id="mask0_85_7767" style="mask-type:luminance" maskUnits="userSpaceOnUse" x="0" y="0" width="14" height="32">
<path d="M0 0.0224609H13.46V31.979H0V0.0224609Z" fill="white"/>
</mask>
<g mask="url(#mask0_85_7767)">
<mask id="mask1_85_7767" style="mask-type:luminance" maskUnits="userSpaceOnUse" x="0" y="0" width="14" height="32">
<path d="M3.35282 10.5932L5.02939 9.6257V27.1229L8.38221 29.0586V7.68914L10.0585 6.72163V30.0267L13.4113 31.9626V0.0224609L0.496863 7.4791C0.189678 7.65614 0 7.98399 0 8.33867V23.6455C0 24.0005 0.189678 24.3283 0.496863 24.506L3.35282 26.1551V10.5932Z" fill="white"/>
</mask>
<g mask="url(#mask1_85_7767)">
<path d="M0 0.0224609H13.4113V31.979H0V0.0224609Z" fill="#95D0FF"/>
</g>
</g>
<mask id="mask2_85_7767" style="mask-type:luminance" maskUnits="userSpaceOnUse" x="15" y="0" width="14" height="32">
<path d="M15.0654 0H28.5217V32H15.0654V0Z" fill="white"/>
</mask>
<g mask="url(#mask2_85_7767)">
<mask id="mask3_85_7767" style="mask-type:luminance" maskUnits="userSpaceOnUse" x="15" y="0" width="14" height="32">
<path d="M28.4992 8.33879C28.4992 7.98411 28.3098 7.65626 28.0023 7.47861L15.0879 0.022583V31.9628L18.4407 30.0268V16.1714L25.1464 20.043V26.1552L28.0023 24.5061C28.3098 24.3285 28.4992 24.0009 28.4992 23.6456V18.1481L25.1464 16.1128L18.4407 12.2412V6.11293L25.1464 9.98451V16.1122L28.4992 16.1359V8.33879Z" fill="white"/>
</mask>
<g mask="url(#mask3_85_7767)">
<path d="M14.792 -0.273438H28.7954V32.2737H14.792V-0.273438Z" fill="#95D0FF"/>
</g>
</g>
<mask id="mask4_85_7767" style="mask-type:luminance" maskUnits="userSpaceOnUse" x="20" y="19" width="4" height="11">
<path d="M20.0977 19.2546H23.5985V29.0991H20.0977V19.2546Z" fill="white"/>
</mask>
<g mask="url(#mask4_85_7767)">
<mask id="mask5_85_7767" style="mask-type:luminance" maskUnits="userSpaceOnUse" x="20" y="19" width="4" height="11">
<path d="M20.1167 19.2628V29.0588L23.5722 27.064V21.1121L20.1167 19.2628Z" fill="white"/>
</mask>
<g mask="url(#mask5_85_7767)">
<path d="M14.7915 -0.273438H28.795V32.2737H14.7915V-0.273438Z" fill="#95D0FF"/>
</g>
</g>
</svg>
