<svg width="265" height="40" viewBox="0 0 265 40" fill="none" xmlns="http://www.w3.org/2000/svg">
<mask id="mask0_80_1989" style="mask-type:luminance" maskUnits="userSpaceOnUse" x="0" y="0" width="17" height="40">
<path d="M0 0H16.9656V40H0V0Z" fill="white"/>
</mask>
<g mask="url(#mask0_80_1989)">
<mask id="mask1_80_1989" style="mask-type:luminance" maskUnits="userSpaceOnUse" x="0" y="0" width="17" height="40">
<path d="M4.28208 13.2875L6.37441 12.0795V33.9133L10.5557 36.3292V9.66363L12.648 8.45569V37.5371L16.831 39.953V0.0993652L0.719754 9.40287C0.334592 9.62494 0.0991211 10.0321 0.0991211 10.4745V29.5745C0.0991211 30.0169 0.334592 30.4274 0.719754 30.6478L4.28208 32.7054V13.2875Z" fill="white"/>
</mask>
<g mask="url(#mask1_80_1989)">
<path d="M-1.51562 -1.51587H37.263V41.5158H-1.51562V-1.51587Z" fill="#3171C6"/>
</g>
</g>
<mask id="mask2_80_1989" style="mask-type:luminance" maskUnits="userSpaceOnUse" x="18" y="0" width="18" height="41">
<path d="M18.8779 0.000244141H35.6703V40.0002H18.8779V0.000244141Z" fill="white"/>
</mask>
<g mask="url(#mask2_80_1989)">
<mask id="mask3_80_1989" style="mask-type:luminance" maskUnits="userSpaceOnUse" x="18" y="0" width="18" height="40">
<path d="M35.6484 10.4748C35.6484 10.0323 35.4113 9.62182 35.0278 9.40311L18.9199 0.0996094V39.9499L23.1012 37.534V20.2493L31.4654 25.0777V32.7056L35.0278 30.6481C35.4113 30.4277 35.6484 30.0172 35.6484 29.5747V22.714L31.4654 20.1753L23.1012 15.3452V7.70055L31.4654 12.5323V20.1753L35.6484 20.2039V10.4748Z" fill="white"/>
</mask>
<g mask="url(#mask3_80_1989)">
<path d="M-1.51562 -1.51562H37.263V41.516H-1.51562V-1.51562Z" fill="#3171C6"/>
</g>
</g>
<mask id="mask4_80_1989" style="mask-type:luminance" maskUnits="userSpaceOnUse" x="25" y="24" width="5" height="13">
<path d="M25.145 24.0901H29.5382V36.363H25.145V24.0901Z" fill="white"/>
</mask>
<g mask="url(#mask4_80_1989)">
<mask id="mask5_80_1989" style="mask-type:luminance" maskUnits="userSpaceOnUse" x="25" y="24" width="5" height="13">
<path d="M25.1919 24.1069V36.3293L29.5027 33.8378V26.4118L25.1919 24.1069Z" fill="white"/>
</mask>
<g mask="url(#mask5_80_1989)">
<path d="M-1.51514 -1.51562H37.2635V41.516H-1.51514V-1.51562Z" fill="#3171C6"/>
</g>
</g>
<mask id="mask6_80_1989" style="mask-type:luminance" maskUnits="userSpaceOnUse" x="47" y="13" width="14" height="14">
<path d="M47.0674 13.6812H60.7852V26.5967H47.0674V13.6812Z" fill="white"/>
</mask>
<g mask="url(#mask6_80_1989)">
<mask id="mask7_80_1989" style="mask-type:luminance" maskUnits="userSpaceOnUse" x="47" y="13" width="14" height="14">
<path d="M48.201 15.9137V26.3511H47.0674V13.6812H48.2044L53.9095 24.4315L59.6583 13.6812H60.7684V26.3511H59.6348V15.9237L53.9196 26.595L48.201 15.9137Z" fill="white"/>
</mask>
<g mask="url(#mask7_80_1989)">
<path d="M47.0674 13.6812H60.7852V26.5967H47.0674V13.6812Z" fill="#1F1F1D"/>
</g>
</g>
<mask id="mask8_80_1989" style="mask-type:luminance" maskUnits="userSpaceOnUse" x="66" y="13" width="12" height="14">
<path d="M66.4277 13.6794H77.8548V26.494H66.4277V13.6794Z" fill="white"/>
</mask>
<g mask="url(#mask8_80_1989)">
<mask id="mask9_80_1989" style="mask-type:luminance" maskUnits="userSpaceOnUse" x="66" y="13" width="12" height="14">
<path d="M66.4277 20.3786V13.6794H67.5799V20.3786C67.5799 23.6475 69.065 25.419 72.1328 25.419C75.2074 25.419 76.6858 23.6475 76.6858 20.3854V13.6794H77.8531V20.3854C77.8531 24.2195 75.9239 26.4873 72.1328 26.4873C68.3384 26.4873 66.4277 24.243 66.4277 20.3786Z" fill="white"/>
</mask>
<g mask="url(#mask9_80_1989)">
<path d="M66.4277 13.6794H77.8548V26.494H66.4277V13.6794Z" fill="#1F1F1D"/>
</g>
</g>
<mask id="mask10_80_1989" style="mask-type:luminance" maskUnits="userSpaceOnUse" x="83" y="13" width="11" height="14">
<path d="M83.5112 13.6794H93.8097V26.3561H83.5112V13.6794Z" fill="white"/>
</mask>
<g mask="url(#mask10_80_1989)">
<mask id="mask11_80_1989" style="mask-type:luminance" maskUnits="userSpaceOnUse" x="83" y="13" width="11" height="14">
<path d="M84.6516 19.8235H89.3946C91.2616 19.8235 92.5987 19.0445 92.5987 17.278C92.5987 15.5469 91.2616 14.7242 89.3946 14.7242H84.6516V19.8235ZM92.0168 26.3527L84.6516 20.525V26.3527H83.5112V13.6794H89.3173C91.9175 13.6794 93.7744 14.8975 93.7744 17.278C93.7744 19.7107 92.0016 20.8665 89.3946 20.8665H86.7405L93.8097 26.3527H92.0168Z" fill="white"/>
</mask>
<g mask="url(#mask11_80_1989)">
<path d="M83.5112 13.6794H93.8097V26.3561H83.5112V13.6794Z" fill="#1F1F1D"/>
</g>
</g>
<mask id="mask12_80_1989" style="mask-type:luminance" maskUnits="userSpaceOnUse" x="98" y="13" width="3" height="14">
<path d="M98.9512 13.6794H100.092V26.3527H98.9512V13.6794Z" fill="white"/>
</mask>
<g mask="url(#mask12_80_1989)">
<path d="M98.9512 13.6794H100.092V26.351H98.9512V13.6794Z" fill="#1F1F1D"/>
</g>
<mask id="mask13_80_1989" style="mask-type:luminance" maskUnits="userSpaceOnUse" x="105" y="13" width="11" height="14">
<path d="M105.999 13.6794H115.027V26.3645H105.999V13.6794Z" fill="white"/>
</mask>
<g mask="url(#mask13_80_1989)">
<mask id="mask14_80_1989" style="mask-type:luminance" maskUnits="userSpaceOnUse" x="105" y="13" width="10" height="14">
<path d="M105.999 13.6794H107.139L107.132 25.3029H114.994V26.3527H105.999V13.6794Z" fill="white"/>
</mask>
<g mask="url(#mask14_80_1989)">
<path d="M105.999 13.6794H114.992V26.3645H105.999V13.6794Z" fill="#1F1F1D"/>
</g>
</g>
<mask id="mask15_80_1989" style="mask-type:luminance" maskUnits="userSpaceOnUse" x="119" y="13" width="10" height="14">
<path d="M119.542 13.6274H128.612V26.4084H119.542V13.6274Z" fill="white"/>
</mask>
<g mask="url(#mask15_80_1989)">
<mask id="mask16_80_1989" style="mask-type:luminance" maskUnits="userSpaceOnUse" x="119" y="13" width="10" height="14">
<path d="M119.558 13.6797H120.698L120.692 25.3015H128.553V26.3513H119.558V13.6797Z" fill="white"/>
</mask>
<g mask="url(#mask16_80_1989)">
<path d="M117.943 11.8391H146.755V28.1968H117.943V11.8391Z" fill="#1F1F1D"/>
</g>
</g>
<mask id="mask17_80_1989" style="mask-type:luminance" maskUnits="userSpaceOnUse" x="131" y="13" width="15" height="14">
<path d="M131.551 13.4355H145.159V26.5984H131.551V13.4355Z" fill="white"/>
</mask>
<g mask="url(#mask17_80_1989)">
<mask id="mask18_80_1989" style="mask-type:luminance" maskUnits="userSpaceOnUse" x="131" y="13" width="15" height="14">
<path d="M144.016 20.0302C144.016 16.9683 141.612 14.5255 138.369 14.5255C135.154 14.5255 132.752 16.965 132.752 20.0302C132.752 23.0703 135.154 25.508 138.369 25.508C141.612 25.508 144.016 23.0703 144.016 20.0302ZM131.615 20.0269C131.615 16.3896 134.476 13.4539 138.369 13.4539C142.29 13.4539 145.151 16.3896 145.151 20.0269C145.151 23.6389 142.29 26.5814 138.369 26.5814C134.476 26.5814 131.615 23.6389 131.615 20.0269Z" fill="white"/>
</mask>
<g mask="url(#mask18_80_1989)">
<path d="M117.944 11.8389H146.755V28.1965H117.944V11.8389Z" fill="#1F1F1D"/>
</g>
</g>
<mask id="mask19_80_1989" style="mask-type:luminance" maskUnits="userSpaceOnUse" x="150" y="13" width="12" height="14">
<path d="M150.203 13.6812H161.067V26.3645H150.203V13.6812Z" fill="white"/>
</mask>
<g mask="url(#mask19_80_1989)">
<mask id="mask20_80_1989" style="mask-type:luminance" maskUnits="userSpaceOnUse" x="150" y="13" width="12" height="14">
<path d="M152.164 19.5493H156.297C157.76 19.5493 158.761 18.8999 158.761 17.4951C158.761 16.1189 157.757 15.4409 156.297 15.4409H152.164V19.5493ZM158.223 26.3528L152.164 20.7606V26.3528H150.203V13.6812H156.145C158.91 13.6812 160.764 15.0338 160.764 17.4984C160.764 19.9984 159.069 21.2518 156.295 21.2518H155.239L161.025 26.3528H158.223Z" fill="white"/>
</mask>
<g mask="url(#mask20_80_1989)">
<path d="M150.203 13.6812H161.025V26.3645H150.203V13.6812Z" fill="#1F1F1D"/>
</g>
</g>
<mask id="mask21_80_1989" style="mask-type:luminance" maskUnits="userSpaceOnUse" x="165" y="13" width="11" height="14">
<path d="M165.763 13.6794H175.688V26.3595H165.763V13.6794Z" fill="white"/>
</mask>
<g mask="url(#mask21_80_1989)">
<mask id="mask22_80_1989" style="mask-type:luminance" maskUnits="userSpaceOnUse" x="165" y="13" width="11" height="14">
<path d="M165.763 13.6794H175.678V15.4594H167.71V18.6996L173.498 18.7097V20.4409H167.71V24.5627H175.688V26.3527H165.763V13.6794Z" fill="white"/>
</mask>
<g mask="url(#mask22_80_1989)">
<path d="M165.763 13.6794H175.688V26.3595H165.763V13.6794Z" fill="#1F1F1D"/>
</g>
</g>
<mask id="mask23_80_1989" style="mask-type:luminance" maskUnits="userSpaceOnUse" x="179" y="13" width="12" height="14">
<path d="M179.403 13.4912H190.171V26.5329H179.403V13.4912Z" fill="white"/>
</mask>
<g mask="url(#mask23_80_1989)">
<mask id="mask24_80_1989" style="mask-type:luminance" maskUnits="userSpaceOnUse" x="179" y="13" width="12" height="14">
<path d="M185.073 26.5058C183.013 26.5109 180.878 25.9305 179.403 25.0001L180.46 23.4759C181.812 24.2851 183.543 24.7444 185.154 24.7309C186.925 24.7158 188.122 24.0429 188.144 22.8871C188.171 21.8238 187.456 21.4301 185.596 21.0011L183.924 20.6192C181.218 20.0052 179.962 18.8746 179.952 17.0122C179.943 14.9547 182.012 13.5482 184.809 13.5331C186.652 13.523 188.439 14.0782 189.751 14.8891L188.755 16.4116C187.638 15.7252 186.356 15.2929 184.987 15.3029C183.243 15.3198 182.032 15.9389 182.042 17.0661C182.051 18.0452 182.836 18.5297 184.5 18.9116L186.284 19.3154C188.979 19.9227 190.159 20.9523 190.169 22.8837C190.179 25.0354 188.099 26.4957 185.073 26.5058Z" fill="white"/>
</mask>
<g mask="url(#mask24_80_1989)">
<path d="M179.403 13.533H190.171V26.4906H179.403V13.533Z" fill="#1F1F1D"/>
</g>
</g>
<mask id="mask25_80_1989" style="mask-type:luminance" maskUnits="userSpaceOnUse" x="193" y="13" width="12" height="14">
<path d="M193.954 13.4912H204.72V26.5329H193.954V13.4912Z" fill="white"/>
</mask>
<g mask="url(#mask25_80_1989)">
<mask id="mask26_80_1989" style="mask-type:luminance" maskUnits="userSpaceOnUse" x="193" y="13" width="12" height="14">
<path d="M199.623 26.5058C197.563 26.5109 195.429 25.9305 193.954 25.0001L195.008 23.4759C196.362 24.2851 198.093 24.7444 199.704 24.7309C201.474 24.7158 202.669 24.0429 202.695 22.8871C202.72 21.8238 202.007 21.4301 200.146 21.0011L198.475 20.6192C195.768 20.0052 194.512 18.8746 194.502 17.0122C194.492 14.9547 196.562 13.5482 199.359 13.5331C201.203 13.523 202.989 14.0782 204.299 14.8891L203.305 16.4116C202.188 15.7252 200.905 15.2929 199.536 15.3029C197.793 15.3198 196.582 15.9389 196.591 17.0661C196.601 18.0452 197.386 18.5297 199.048 18.9116L200.834 19.3154C203.527 19.9227 204.71 20.9523 204.72 22.8837C204.73 25.0354 202.649 26.4957 199.62 26.5058H199.623Z" fill="white"/>
</mask>
<g mask="url(#mask26_80_1989)">
<path d="M193.954 13.533H204.72V26.4906H193.954V13.533Z" fill="#1F1F1D"/>
</g>
</g>
<mask id="mask27_80_1989" style="mask-type:luminance" maskUnits="userSpaceOnUse" x="209" y="13" width="3" height="14">
<path d="M209.513 13.6794H211.473V26.3527H209.513V13.6794Z" fill="white"/>
</mask>
<g mask="url(#mask27_80_1989)">
<path d="M209.513 13.6794H211.473V26.351H209.513V13.6794Z" fill="#1F1F1D"/>
</g>
<mask id="mask28_80_1989" style="mask-type:luminance" maskUnits="userSpaceOnUse" x="217" y="13" width="12" height="14">
<path d="M217.134 13.6794H228.894V26.3578H217.134V13.6794Z" fill="white"/>
</mask>
<g mask="url(#mask28_80_1989)">
<mask id="mask29_80_1989" style="mask-type:luminance" maskUnits="userSpaceOnUse" x="217" y="13" width="12" height="14">
<path d="M217.134 13.6828H219.083L226.899 23.528V13.6794H228.85V26.3527H226.906L219.093 16.526V26.3527H217.134V13.6828Z" fill="white"/>
</mask>
<g mask="url(#mask29_80_1989)">
<path d="M217.134 13.6794H228.847V26.3578H217.134V13.6794Z" fill="#1F1F1D"/>
</g>
</g>
<mask id="mask30_80_1989" style="mask-type:luminance" maskUnits="userSpaceOnUse" x="234" y="13" width="11" height="14">
<path d="M234.515 13.6794H244.439V26.3595H234.515V13.6794Z" fill="white"/>
</mask>
<g mask="url(#mask30_80_1989)">
<mask id="mask31_80_1989" style="mask-type:luminance" maskUnits="userSpaceOnUse" x="234" y="13" width="11" height="14">
<path d="M234.515 13.6794H244.428V15.4594H236.461V18.6996L242.249 18.7097V20.4409H236.461V24.5627H244.439V26.3527H234.515V13.6794Z" fill="white"/>
</mask>
<g mask="url(#mask31_80_1989)">
<path d="M234.515 13.6794H244.439V26.3595H234.515V13.6794Z" fill="#1F1F1D"/>
</g>
</g>
<mask id="mask32_80_1989" style="mask-type:luminance" maskUnits="userSpaceOnUse" x="247" y="13" width="12" height="14">
<path d="M247.971 13.6812H258.806V26.3729H247.971V13.6812Z" fill="white"/>
</mask>
<g mask="url(#mask32_80_1989)">
<mask id="mask33_80_1989" style="mask-type:luminance" maskUnits="userSpaceOnUse" x="247" y="13" width="12" height="14">
<path d="M252.408 15.4661H247.981L247.971 13.6812H258.764V15.4661H254.345V26.3528H252.408V15.4661Z" fill="white"/>
</mask>
<g mask="url(#mask33_80_1989)">
<path d="M247.971 13.6812H258.764V26.3309H247.971V13.6812Z" fill="#1F1F1D"/>
</g>
</g>
<mask id="mask34_80_1989" style="mask-type:luminance" maskUnits="userSpaceOnUse" x="263" y="13" width="2" height="14">
<path d="M263.041 13.6794H265V26.3527H263.041V13.6794Z" fill="white"/>
</mask>
<g mask="url(#mask34_80_1989)">
<path d="M263.041 13.6794H265V26.351H263.041V13.6794Z" fill="#1F1F1D"/>
</g>
</svg>
